<svg width="20" height="15" viewBox="0 0 20 15" fill="none" xmlns="http://www.w3.org/2000/svg">
<path d="M15.5554 3.5558H14.0229V2.05462C14.0229 1.62571 13.8648 1.26233 13.5486 0.964479C13.2324 0.666627 12.8675 0.5177 12.454 0.5177H2.34711C1.90926 0.5177 1.53831 0.666627 1.23425 0.964479C0.930197 1.26233 0.778168 1.62571 0.778168 2.05462V11.2047C0.778168 11.6097 0.930197 11.9612 1.23425 12.2591C1.53831 12.5569 1.90926 12.7058 2.34711 12.7058H2.49305C2.639 13.1586 2.91265 13.5279 3.31401 13.8138C3.71537 14.0998 4.17145 14.2427 4.68227 14.2427C5.16876 14.2427 5.61269 14.0998 6.01404 13.8138C6.4154 13.5279 6.68905 13.1586 6.835 12.7058H13.4027C13.5486 13.1586 13.8223 13.5279 14.2236 13.8138C14.625 14.0998 15.0689 14.2427 15.5554 14.2427C16.0662 14.2427 16.5223 14.0998 16.9236 13.8138C17.325 13.5279 17.5986 13.1586 17.7446 12.7058H17.8905C18.3284 12.7058 18.6993 12.5569 19.0034 12.2591C19.3075 11.9612 19.4595 11.6097 19.4595 11.2047V8.45249C19.4595 8.04741 19.3014 7.68999 18.9852 7.38022L15.5554 3.5558ZM4.68227 12.7058C4.48767 12.7058 4.30524 12.6284 4.13497 12.4735C3.96469 12.3186 3.87956 12.1459 3.87956 11.9552C3.87956 11.7646 3.96469 11.5919 4.13497 11.437C4.30524 11.2821 4.48767 11.2047 4.68227 11.2047C4.87687 11.2047 5.05322 11.2821 5.21133 11.437C5.36944 11.5919 5.4485 11.7646 5.4485 11.9552C5.4485 12.1459 5.36944 12.3186 5.21133 12.4735C5.05322 12.6284 4.87687 12.7058 4.68227 12.7058ZM12.454 11.2047H6.835C6.68905 10.7519 6.4154 10.3826 6.01404 10.0966C5.61269 9.8107 5.16876 9.66773 4.68227 9.66773C4.17145 9.66773 3.71537 9.8107 3.31401 10.0966C2.91265 10.3826 2.639 10.7519 2.49305 11.2047H2.34711V2.05462H12.454V11.2047ZM15.5554 12.7058C15.3608 12.7058 15.1844 12.6284 15.0263 12.4735C14.8682 12.3186 14.7892 12.1459 14.7892 11.9552C14.7892 11.7646 14.8682 11.5919 15.0263 11.437C15.1844 11.2821 15.3608 11.2047 15.5554 11.2047C15.75 11.2047 15.9324 11.2821 16.1027 11.437C16.273 11.5919 16.3581 11.7646 16.3581 11.9552C16.3581 12.1459 16.273 12.3186 16.1027 12.4735C15.9324 12.6284 15.75 12.7058 15.5554 12.7058ZM17.8905 11.2047H17.7446C17.5986 10.7519 17.325 10.3826 16.9236 10.0966C16.5223 9.8107 16.0662 9.66773 15.5554 9.66773C14.8986 9.66773 14.3878 9.87027 14.0229 10.2754V5.09272H14.4608L17.8905 8.45249V11.2047ZM7.01744 8.13081H8.54989V6.62964H10.1188V5.09272H8.54989V3.5558H7.01744V5.09272H5.4485V6.62964H7.01744V8.13081Z" fill="#333333"/>
</svg>
