<svg width="16" height="16" viewBox="0 0 16 16" fill="none" xmlns="http://www.w3.org/2000/svg">
<path d="M13.3834 6.96705C13.6759 7.34964 13.6759 7.86615 13.3834 8.24812C12.462 9.45083 10.2516 11.9272 7.67097 11.9272C5.0903 11.9272 2.87989 9.45083 1.95858 8.24812C1.81627 8.06493 1.73901 7.83956 1.73901 7.60759C1.73901 7.37561 1.81627 7.15024 1.95858 6.96705C2.87989 5.76434 5.0903 3.28796 7.67097 3.28796C10.2516 3.28796 12.462 5.76434 13.3834 6.96705V6.96705Z" stroke="black" stroke-width="1.13924" stroke-linecap="round" stroke-linejoin="round"/>
<path d="M7.67109 9.45888C8.69352 9.45888 9.52236 8.63004 9.52236 7.60761C9.52236 6.58519 8.69352 5.75635 7.67109 5.75635C6.64866 5.75635 5.81982 6.58519 5.81982 7.60761C5.81982 8.63004 6.64866 9.45888 7.67109 9.45888Z" stroke="black" stroke-width="1.13924" stroke-linecap="round" stroke-linejoin="round"/>
</svg>
