<svg width="114" height="33" viewBox="0 0 114 33" fill="none" xmlns="http://www.w3.org/2000/svg">
<path d="M27.714 25V8.86152H37.8812V10.6368H29.5353V16.0316H36.7976V17.8069H29.5353V25H27.714ZM41.8179 10.3601C41.3875 10.3601 41.057 10.2525 40.8265 10.0373C40.5959 9.80678 40.4807 9.49169 40.4807 9.09207C40.4807 8.70782 40.5959 8.40042 40.8265 8.16987C41.057 7.93932 41.3875 7.82405 41.8179 7.82405C42.2329 7.82405 42.5556 7.93932 42.7862 8.16987C43.0167 8.38505 43.132 8.69245 43.132 9.09207C43.132 9.47632 43.0167 9.78372 42.7862 10.0143C42.5556 10.2448 42.2329 10.3601 41.8179 10.3601ZM40.9418 25V12.9423H42.717V25H40.9418ZM46.2273 25V12.9423H47.9795L48.0025 15.2708C48.3253 14.5484 48.8171 13.9413 49.4781 13.4495C50.139 12.9423 50.8921 12.6886 51.7374 12.6886C51.9987 12.6886 52.2447 12.7117 52.4752 12.7578C52.7058 12.8039 52.8979 12.85 53.0516 12.8961L52.5674 14.8558C52.1678 14.6867 51.7682 14.6022 51.3686 14.6022C50.6769 14.6022 50.0775 14.7713 49.5703 15.1094C49.0631 15.4322 48.6711 15.8625 48.3945 16.4005C48.1332 16.9384 48.0025 17.5302 48.0025 18.1757V25H46.2273ZM58.8159 25.2305C57.7707 25.2305 56.8408 25.0461 56.0262 24.6772C55.227 24.293 54.5814 23.7781 54.0896 23.1325L55.3346 22.049C56.2106 23.1402 57.4172 23.6859 58.9542 23.6859C59.6919 23.6859 60.2914 23.5245 60.7525 23.2017C61.2289 22.8636 61.4672 22.4025 61.4672 21.8184C61.4672 21.3266 61.252 20.9193 60.8216 20.5965C60.6218 20.4428 60.3375 20.2968 59.9686 20.1585C59.5997 20.0201 59.154 19.8741 58.6314 19.7204C57.7707 19.4899 57.056 19.2439 56.4873 18.9827C55.9186 18.7214 55.4729 18.4216 55.1501 18.0835C54.689 17.5609 54.4585 16.9077 54.4585 16.1238C54.4585 15.4629 54.6352 14.8789 54.9887 14.3717C55.3576 13.8491 55.8571 13.4418 56.4873 13.1497C57.1328 12.8423 57.8552 12.6886 58.6545 12.6886C59.5152 12.6886 60.3452 12.8731 61.1444 13.242C61.959 13.5955 62.6199 14.0566 63.1271 14.6253L62.0436 15.8011C61.5825 15.3246 61.0676 14.9403 60.4989 14.6483C59.9455 14.3563 59.3615 14.2103 58.7467 14.2103C57.9936 14.2103 57.3864 14.3793 56.9253 14.7175C56.4796 15.0556 56.2568 15.5014 56.2568 16.0547C56.2568 16.5004 56.4335 16.8693 56.787 17.1613C57.0022 17.3304 57.3019 17.4918 57.6862 17.6455C58.0858 17.7838 58.5776 17.9298 59.1617 18.0835C59.8226 18.2679 60.3913 18.4601 60.8677 18.6599C61.3442 18.8443 61.7362 19.0672 62.0436 19.3285C62.8121 19.9125 63.1963 20.7118 63.1963 21.7262C63.1963 22.4025 63.0042 23.0096 62.6199 23.5475C62.2357 24.0701 61.7131 24.4851 61.0522 24.7925C60.3913 25.0845 59.6458 25.2305 58.8159 25.2305ZM67.5425 25V14.6253H64.8451V12.9423H67.5425V9.80678H69.2947V12.9423H72.3149V14.6253H69.2947V25H67.5425ZM81.8382 25.2305C80.3012 25.2305 78.9333 24.877 77.7344 24.17C76.5356 23.463 75.598 22.487 74.9217 21.242C74.2455 19.9817 73.9073 18.5446 73.9073 16.9308C73.9073 15.7626 74.1071 14.6791 74.5067 13.68C74.9064 12.681 75.4597 11.8126 76.1667 11.0748C76.8891 10.337 77.7268 9.76067 78.6797 9.34568C79.648 8.93069 80.6932 8.72319 81.8152 8.72319C82.5683 8.72319 83.3137 8.84615 84.0515 9.09207C84.7893 9.33799 85.4655 9.66845 86.0803 10.0834C86.7105 10.4984 87.2254 10.9749 87.625 11.5128L86.38 12.827C85.796 12.12 85.0967 11.5666 84.282 11.167C83.4674 10.752 82.6451 10.5445 81.8152 10.5445C80.6624 10.5445 79.6326 10.8212 78.7258 11.3745C77.819 11.9278 77.1043 12.6886 76.5817 13.657C76.0591 14.6099 75.7978 15.7012 75.7978 16.9308C75.7978 18.2065 76.0591 19.3362 76.5817 20.3198C77.1196 21.2882 77.8574 22.0413 78.795 22.5792C79.7325 23.1172 80.8161 23.3862 82.0457 23.3862C82.8911 23.3862 83.7057 23.2171 84.4895 22.8789C85.2888 22.5254 85.9266 22.0643 86.4031 21.4956L87.3253 23.0173C86.9564 23.4476 86.4723 23.8319 85.8728 24.17C85.2888 24.4928 84.6432 24.7541 83.9362 24.9539C83.2446 25.1383 82.5452 25.2305 81.8382 25.2305ZM94.7665 25.2305C93.7213 25.2305 92.7761 24.9616 91.9307 24.4236C91.0854 23.8703 90.4168 23.1249 89.9249 22.1873C89.4331 21.2344 89.1872 20.1585 89.1872 18.9596C89.1872 17.7454 89.4408 16.6695 89.948 15.7319C90.4552 14.779 91.1392 14.0335 91.9999 13.4956C92.8606 12.9576 93.8212 12.6886 94.8817 12.6886C95.8501 12.6886 96.7108 12.9115 97.4639 13.3572C98.2324 13.803 98.8165 14.3793 99.2161 15.0864L99.2622 12.9423H101.014V25H99.2391V22.8559C98.8088 23.5322 98.194 24.1009 97.3947 24.562C96.5955 25.0077 95.7194 25.2305 94.7665 25.2305ZM95.1584 23.5475C95.9576 23.5475 96.6724 23.3554 97.3025 22.9712C97.9327 22.5715 98.4245 22.0259 98.778 21.3343C99.1469 20.6426 99.3314 19.8434 99.3314 18.9365C99.3314 18.0605 99.1469 17.2766 98.778 16.5849C98.4245 15.8933 97.9327 15.3553 97.3025 14.9711C96.6724 14.5715 95.9576 14.3717 95.1584 14.3717C94.3438 14.3717 93.6214 14.5715 92.9912 14.9711C92.3764 15.3553 91.8923 15.8933 91.5388 16.5849C91.1853 17.2766 91.0085 18.0605 91.0085 18.9365C91.0085 19.828 91.1853 20.6272 91.5388 21.3343C91.8923 22.0259 92.3764 22.5715 92.9912 22.9712C93.6214 23.3554 94.3438 23.5475 95.1584 23.5475ZM104.406 25V7.93932H106.158V25H104.406ZM109.607 25V7.93932H111.359V25H109.607Z" fill="black"/>
<path d="M7.66071 18.2679H4.71429V14.7322H7.66071V11.7857H11.1964V14.7322H14.1429V18.2679H11.1964V21.2143H7.66071V18.2679ZM9.42857 5.30359L0 8.8393V16.0168C0 21.9686 4.01893 27.5197 9.42857 28.875C14.8382 27.5197 18.8571 21.9686 18.8571 16.0168V8.8393L9.42857 5.30359Z" fill="#F07373"/>
</svg>
