<svg width="22" height="18" viewBox="0 0 22 18" fill="none" xmlns="http://www.w3.org/2000/svg">
<path fill-rule="evenodd" clip-rule="evenodd" d="M0.674738 6.79974C0.750212 6.72407 0.839872 6.66404 0.938583 6.62308C1.03729 6.58212 1.14312 6.56104 1.24999 6.56104C1.35686 6.56104 1.46268 6.58212 1.56139 6.62308C1.6601 6.66404 1.74976 6.72407 1.82524 6.79974L11 15.9761L20.1747 6.79974C20.3273 6.64717 20.5342 6.56146 20.75 6.56146C20.9657 6.56146 21.1727 6.64717 21.3252 6.79974C21.4778 6.9523 21.5635 7.15923 21.5635 7.37499C21.5635 7.59075 21.4778 7.79767 21.3252 7.95024L11.5752 17.7002C11.4998 17.7759 11.4101 17.8359 11.3114 17.8769C11.2127 17.9179 11.1069 17.9389 11 17.9389C10.8931 17.9389 10.7873 17.9179 10.6886 17.8769C10.5899 17.8359 10.5002 17.7759 10.4247 17.7002L0.674738 7.95024C0.599072 7.87476 0.53904 7.7851 0.49808 7.68639C0.457119 7.58768 0.436035 7.48186 0.436035 7.37499C0.436035 7.26812 0.457119 7.16229 0.49808 7.06358C0.53904 6.96487 0.599072 6.87521 0.674738 6.79974Z" fill="#333333"/>
<path fill-rule="evenodd" clip-rule="evenodd" d="M0.674738 0.299737C0.750212 0.224072 0.839872 0.16404 0.938583 0.12308C1.03729 0.0821193 1.14312 0.0610352 1.24999 0.0610352C1.35686 0.0610352 1.46268 0.0821193 1.56139 0.12308C1.6601 0.16404 1.74976 0.224072 1.82524 0.299737L11 9.47611L20.1747 0.299737C20.2503 0.224195 20.34 0.164271 20.4387 0.123387C20.5374 0.0825039 20.6432 0.0614613 20.75 0.0614613C20.8568 0.0614613 20.9626 0.0825039 21.0613 0.123387C21.16 0.164271 21.2497 0.224195 21.3252 0.299737C21.4008 0.37528 21.4607 0.464963 21.5016 0.563665C21.5425 0.662366 21.5635 0.768154 21.5635 0.874988C21.5635 0.981821 21.5425 1.08761 21.5016 1.18631C21.4607 1.28501 21.4008 1.37469 21.3252 1.45024L11.5752 11.2002C11.4998 11.2759 11.4101 11.3359 11.3114 11.3769C11.2127 11.4179 11.1069 11.4389 11 11.4389C10.8931 11.4389 10.7873 11.4179 10.6886 11.3769C10.5899 11.3359 10.5002 11.2759 10.4247 11.2002L0.674738 1.45024C0.599072 1.37476 0.53904 1.2851 0.49808 1.18639C0.457119 1.08768 0.436035 0.981859 0.436035 0.874988C0.436035 0.768116 0.457119 0.662294 0.49808 0.563583C0.53904 0.464872 0.599072 0.375212 0.674738 0.299737V0.299737Z" fill="#333333"/>
</svg>
