<svg width="27" height="27" viewBox="0 0 27 27" fill="none" xmlns="http://www.w3.org/2000/svg">
<path d="M22.8704 6.98148H19.25L18.3875 4.56435C18.3279 4.39895 18.2187 4.25599 18.0748 4.15498C17.9309 4.05397 17.7594 3.99984 17.5836 4H9.41644C9.05706 4 8.73495 4.22627 8.61516 4.56435L7.75 6.98148H4.12963C2.95301 6.98148 2 7.93449 2 9.11111V21.25C2 22.4266 2.95301 23.3796 4.12963 23.3796H22.8704C24.047 23.3796 25 22.4266 25 21.25V9.11111C25 7.93449 24.047 6.98148 22.8704 6.98148ZM23.0833 21.25C23.0833 21.3671 22.9875 21.463 22.8704 21.463H4.12963C4.0125 21.463 3.91667 21.3671 3.91667 21.25V9.11111C3.91667 8.99398 4.0125 8.89815 4.12963 8.89815H9.09965L9.55486 7.62569L10.1645 5.91667H16.8329L17.4425 7.62569L17.8977 8.89815H22.8704C22.9875 8.89815 23.0833 8.99398 23.0833 9.11111V21.25ZM13.5 10.6019C11.1468 10.6019 9.24074 12.5079 9.24074 14.8611C9.24074 17.2144 11.1468 19.1204 13.5 19.1204C15.8532 19.1204 17.7593 17.2144 17.7593 14.8611C17.7593 12.5079 15.8532 10.6019 13.5 10.6019ZM13.5 17.4167C12.0891 17.4167 10.9444 16.272 10.9444 14.8611C10.9444 13.4502 12.0891 12.3056 13.5 12.3056C14.9109 12.3056 16.0556 13.4502 16.0556 14.8611C16.0556 16.272 14.9109 17.4167 13.5 17.4167Z" fill="#333333"/>
</svg>
