<svg width="27" height="27" viewBox="0 0 27 27" fill="none" xmlns="http://www.w3.org/2000/svg">
<path d="M13.5 1.6875C6.97676 1.6875 1.6875 6.97676 1.6875 13.5C1.6875 20.0232 6.97676 25.3125 13.5 25.3125C20.0232 25.3125 25.3125 20.0232 25.3125 13.5C25.3125 6.97676 20.0232 1.6875 13.5 1.6875ZM13.5 23.3086C8.08418 23.3086 3.69141 18.9158 3.69141 13.5C3.69141 8.08418 8.08418 3.69141 13.5 3.69141C18.9158 3.69141 23.3086 8.08418 23.3086 13.5C23.3086 18.9158 18.9158 23.3086 13.5 23.3086Z" fill="#333333"/>
<path d="M12.2344 8.85938C12.2344 9.19504 12.3677 9.51696 12.6051 9.75431C12.8424 9.99166 13.1643 10.125 13.5 10.125C13.8357 10.125 14.1576 9.99166 14.3949 9.75431C14.6323 9.51696 14.7656 9.19504 14.7656 8.85938C14.7656 8.52371 14.6323 8.20179 14.3949 7.96444C14.1576 7.72709 13.8357 7.59375 13.5 7.59375C13.1643 7.59375 12.8424 7.72709 12.6051 7.96444C12.3677 8.20179 12.2344 8.52371 12.2344 8.85938V8.85938ZM14.1328 11.8125H12.8672C12.7512 11.8125 12.6563 11.9074 12.6563 12.0234V19.1953C12.6563 19.3113 12.7512 19.4063 12.8672 19.4063H14.1328C14.2488 19.4063 14.3438 19.3113 14.3438 19.1953V12.0234C14.3438 11.9074 14.2488 11.8125 14.1328 11.8125Z" fill="#333333"/>
</svg>
