<svg width="27" height="27" viewBox="0 0 27 27" fill="none" xmlns="http://www.w3.org/2000/svg">
<path d="M12.2344 13.5C12.2344 13.8357 12.3677 14.1576 12.6051 14.3949C12.8424 14.6323 13.1643 14.7656 13.5 14.7656C13.8357 14.7656 14.1576 14.6323 14.3949 14.3949C14.6323 14.1576 14.7656 13.8357 14.7656 13.5C14.7656 13.1643 14.6323 12.8424 14.3949 12.6051C14.1576 12.3677 13.8357 12.2344 13.5 12.2344C13.1643 12.2344 12.8424 12.3677 12.6051 12.6051C12.3677 12.8424 12.2344 13.1643 12.2344 13.5V13.5ZM17.5078 13.5C17.5078 13.8357 17.6412 14.1576 17.8785 14.3949C18.1159 14.6323 18.4378 14.7656 18.7734 14.7656C19.1091 14.7656 19.431 14.6323 19.6684 14.3949C19.9057 14.1576 20.0391 13.8357 20.0391 13.5C20.0391 13.1643 19.9057 12.8424 19.6684 12.6051C19.431 12.3677 19.1091 12.2344 18.7734 12.2344C18.4378 12.2344 18.1159 12.3677 17.8785 12.6051C17.6412 12.8424 17.5078 13.1643 17.5078 13.5ZM6.96093 13.5C6.96093 13.8357 7.09428 14.1576 7.33163 14.3949C7.56898 14.6323 7.8909 14.7656 8.22656 14.7656C8.56222 14.7656 8.88414 14.6323 9.12149 14.3949C9.35884 14.1576 9.49219 13.8357 9.49219 13.5C9.49219 13.1643 9.35884 12.8424 9.12149 12.6051C8.88414 12.3677 8.56222 12.2344 8.22656 12.2344C7.8909 12.2344 7.56898 12.3677 7.33163 12.6051C7.09428 12.8424 6.96093 13.1643 6.96093 13.5V13.5ZM24.3949 8.92266C23.799 7.50674 22.9447 6.23584 21.8558 5.14424C20.7744 4.05896 19.4907 3.19629 18.0773 2.60508C16.6271 1.996 15.0873 1.6875 13.5 1.6875H13.4473C11.8494 1.69541 10.3017 2.01182 8.84619 2.63408C7.44492 3.23135 6.17325 4.09556 5.10205 5.17852C4.02363 6.26748 3.17724 7.53311 2.59189 8.94375C1.98545 10.4045 1.67959 11.9575 1.6875 13.5554C1.69644 15.3865 2.12965 17.1906 2.95312 18.8262V22.834C2.95312 23.1557 3.08091 23.4642 3.30837 23.6916C3.53583 23.9191 3.84433 24.0469 4.16601 24.0469H8.17646C9.812 24.8703 11.6161 25.3036 13.4473 25.3125H13.5026C15.082 25.3125 16.614 25.0066 18.0562 24.4081C19.4625 23.8239 20.7414 22.9713 21.8215 21.8979C22.9104 20.8195 23.7674 19.5592 24.3659 18.1538C24.9882 16.6983 25.3046 15.1506 25.3125 13.5527C25.3204 11.947 25.0093 10.3887 24.3949 8.92266V8.92266ZM20.4108 20.4715C18.5625 22.3014 16.1103 23.3086 13.5 23.3086H13.4552C11.8652 23.3007 10.2858 22.9052 8.89101 22.1616L8.66953 22.043H4.95703V18.3305L4.83838 18.109C4.09482 16.7142 3.69931 15.1348 3.6914 13.5448C3.68086 10.916 4.68545 8.44805 6.52851 6.58916C8.36894 4.73027 10.829 3.70195 13.4578 3.69141H13.5026C14.821 3.69141 16.0998 3.94717 17.3048 4.45342C18.4808 4.94648 19.5354 5.65576 20.4425 6.56279C21.3469 7.46719 22.0588 8.52451 22.5519 9.70049C23.0634 10.9187 23.3191 12.2106 23.3139 13.5448C23.298 16.171 22.2671 18.6311 20.4108 20.4715V20.4715Z" fill="#333333"/>
</svg>
