<svg width="27" height="27" viewBox="0 0 27 27" fill="none" xmlns="http://www.w3.org/2000/svg">
<mask id="path-1-inside-1" fill="white">
<path d="M11.9318 11.7675H10.8864V10.7263C10.8864 10.4502 10.7762 10.1854 10.5802 9.99013C10.3841 9.79488 10.1182 9.68519 9.84091 9.68519C9.56364 9.68519 9.29772 9.79488 9.10166 9.99013C8.9056 10.1854 8.79545 10.4502 8.79545 10.7263V11.7675H7.75C7.47273 11.7675 7.20681 11.8772 7.01075 12.0724C6.81469 12.2677 6.70455 12.5325 6.70455 12.8086C6.70455 13.0848 6.81469 13.3496 7.01075 13.5448C7.20681 13.7401 7.47273 13.8498 7.75 13.8498H8.79545V14.8909C8.79545 15.1671 8.9056 15.4319 9.10166 15.6272C9.29772 15.8224 9.56364 15.9321 9.84091 15.9321C10.1182 15.9321 10.3841 15.8224 10.5802 15.6272C10.7762 15.4319 10.8864 15.1671 10.8864 14.8909V13.8498H11.9318C12.2091 13.8498 12.475 13.7401 12.6711 13.5448C12.8671 13.3496 12.9773 13.0848 12.9773 12.8086C12.9773 12.5325 12.8671 12.2677 12.6711 12.0724C12.475 11.8772 12.2091 11.7675 11.9318 11.7675ZM24.9268 14.006L24.8641 13.8914C24.8461 13.8399 24.8215 13.7909 24.7909 13.7457L22.2818 10.414C21.9897 10.0261 21.6109 9.71122 21.1754 9.49436C20.7398 9.27751 20.2596 9.16461 19.7727 9.16461H17.6818V8.12346C17.6818 7.29506 17.3514 6.5006 16.7632 5.91484C16.175 5.32908 15.3773 5 14.5455 5H5.13636C4.30455 5 3.5068 5.32908 2.91862 5.91484C2.33044 6.5006 2 7.29506 2 8.12346V19.5761C2 19.8523 2.11015 20.1171 2.30621 20.3123C2.50227 20.5076 2.76818 20.6173 3.04545 20.6173H4.09091C4.09091 21.4457 4.42135 22.2401 5.00953 22.8259C5.59771 23.4117 6.39546 23.7407 7.22727 23.7407C8.05909 23.7407 8.85683 23.4117 9.44502 22.8259C10.0332 22.2401 10.3636 21.4457 10.3636 20.6173H16.6364C16.6364 21.4457 16.9668 22.2401 17.555 22.8259C18.1432 23.4117 18.9409 23.7407 19.7727 23.7407C20.6045 23.7407 21.4023 23.4117 21.9905 22.8259C22.5787 22.2401 22.9091 21.4457 22.9091 20.6173H23.9545C24.2318 20.6173 24.4977 20.5076 24.6938 20.3123C24.8899 20.1171 25 19.8523 25 19.5761V14.3704C24.9977 14.2455 24.973 14.1221 24.9268 14.006V14.006ZM7.22727 21.6584C7.0205 21.6584 6.81837 21.5974 6.64645 21.483C6.47453 21.3686 6.34053 21.206 6.2614 21.0157C6.18227 20.8255 6.16157 20.6161 6.20191 20.4142C6.24225 20.2122 6.34182 20.0267 6.48802 19.8811C6.63423 19.7355 6.82052 19.6363 7.02331 19.5961C7.22611 19.556 7.43632 19.5766 7.62735 19.6554C7.81838 19.7342 7.98166 19.8676 8.09654 20.0389C8.21141 20.2101 8.27273 20.4114 8.27273 20.6173C8.27273 20.8934 8.16258 21.1582 7.96652 21.3535C7.77046 21.5487 7.50454 21.6584 7.22727 21.6584ZM15.5909 18.535H9.54818C9.25422 18.2129 8.89591 17.9555 8.49623 17.7794C8.09655 17.6033 7.66432 17.5124 7.22727 17.5124C6.79022 17.5124 6.358 17.6033 5.95832 17.7794C5.55864 17.9555 5.20033 18.2129 4.90636 18.535H4.09091V8.12346C4.09091 7.84733 4.20105 7.58251 4.39712 7.38725C4.59318 7.192 4.85909 7.0823 5.13636 7.0823H14.5455C14.8227 7.0823 15.0886 7.192 15.2847 7.38725C15.4808 7.58251 15.5909 7.84733 15.5909 8.12346V18.535ZM17.6818 11.2469H19.7727C19.935 11.2469 20.0951 11.2845 20.2403 11.3568C20.3854 11.4291 20.5117 11.5341 20.6091 11.6634L21.8636 13.3292H17.6818V11.2469ZM19.7727 21.6584C19.566 21.6584 19.3638 21.5974 19.1919 21.483C19.02 21.3686 18.886 21.206 18.8069 21.0157C18.7277 20.8255 18.707 20.6161 18.7474 20.4142C18.7877 20.2122 18.8873 20.0267 19.0335 19.8811C19.1797 19.7355 19.366 19.6363 19.5688 19.5961C19.7716 19.556 19.9818 19.5766 20.1728 19.6554C20.3638 19.7342 20.5271 19.8676 20.642 20.0389C20.7569 20.2101 20.8182 20.4114 20.8182 20.6173C20.8182 20.8934 20.708 21.1582 20.512 21.3535C20.3159 21.5487 20.05 21.6584 19.7727 21.6584ZM22.9091 18.535H22.0936C21.5373 17.9249 20.7615 17.5585 19.9351 17.5156C19.1087 17.4727 18.2988 17.7568 17.6818 18.3059V15.4115H22.9091V18.535Z"/>
</mask>
<path d="M11.9318 11.7675H10.8864V10.7263C10.8864 10.4502 10.7762 10.1854 10.5802 9.99013C10.3841 9.79488 10.1182 9.68519 9.84091 9.68519C9.56364 9.68519 9.29772 9.79488 9.10166 9.99013C8.9056 10.1854 8.79545 10.4502 8.79545 10.7263V11.7675H7.75C7.47273 11.7675 7.20681 11.8772 7.01075 12.0724C6.81469 12.2677 6.70455 12.5325 6.70455 12.8086C6.70455 13.0848 6.81469 13.3496 7.01075 13.5448C7.20681 13.7401 7.47273 13.8498 7.75 13.8498H8.79545V14.8909C8.79545 15.1671 8.9056 15.4319 9.10166 15.6272C9.29772 15.8224 9.56364 15.9321 9.84091 15.9321C10.1182 15.9321 10.3841 15.8224 10.5802 15.6272C10.7762 15.4319 10.8864 15.1671 10.8864 14.8909V13.8498H11.9318C12.2091 13.8498 12.475 13.7401 12.6711 13.5448C12.8671 13.3496 12.9773 13.0848 12.9773 12.8086C12.9773 12.5325 12.8671 12.2677 12.6711 12.0724C12.475 11.8772 12.2091 11.7675 11.9318 11.7675ZM24.9268 14.006L24.8641 13.8914C24.8461 13.8399 24.8215 13.7909 24.7909 13.7457L22.2818 10.414C21.9897 10.0261 21.6109 9.71122 21.1754 9.49436C20.7398 9.27751 20.2596 9.16461 19.7727 9.16461H17.6818V8.12346C17.6818 7.29506 17.3514 6.5006 16.7632 5.91484C16.175 5.32908 15.3773 5 14.5455 5H5.13636C4.30455 5 3.5068 5.32908 2.91862 5.91484C2.33044 6.5006 2 7.29506 2 8.12346V19.5761C2 19.8523 2.11015 20.1171 2.30621 20.3123C2.50227 20.5076 2.76818 20.6173 3.04545 20.6173H4.09091C4.09091 21.4457 4.42135 22.2401 5.00953 22.8259C5.59771 23.4117 6.39546 23.7407 7.22727 23.7407C8.05909 23.7407 8.85683 23.4117 9.44502 22.8259C10.0332 22.2401 10.3636 21.4457 10.3636 20.6173H16.6364C16.6364 21.4457 16.9668 22.2401 17.555 22.8259C18.1432 23.4117 18.9409 23.7407 19.7727 23.7407C20.6045 23.7407 21.4023 23.4117 21.9905 22.8259C22.5787 22.2401 22.9091 21.4457 22.9091 20.6173H23.9545C24.2318 20.6173 24.4977 20.5076 24.6938 20.3123C24.8899 20.1171 25 19.8523 25 19.5761V14.3704C24.9977 14.2455 24.973 14.1221 24.9268 14.006V14.006ZM7.22727 21.6584C7.0205 21.6584 6.81837 21.5974 6.64645 21.483C6.47453 21.3686 6.34053 21.206 6.2614 21.0157C6.18227 20.8255 6.16157 20.6161 6.20191 20.4142C6.24225 20.2122 6.34182 20.0267 6.48802 19.8811C6.63423 19.7355 6.82052 19.6363 7.02331 19.5961C7.22611 19.556 7.43632 19.5766 7.62735 19.6554C7.81838 19.7342 7.98166 19.8676 8.09654 20.0389C8.21141 20.2101 8.27273 20.4114 8.27273 20.6173C8.27273 20.8934 8.16258 21.1582 7.96652 21.3535C7.77046 21.5487 7.50454 21.6584 7.22727 21.6584ZM15.5909 18.535H9.54818C9.25422 18.2129 8.89591 17.9555 8.49623 17.7794C8.09655 17.6033 7.66432 17.5124 7.22727 17.5124C6.79022 17.5124 6.358 17.6033 5.95832 17.7794C5.55864 17.9555 5.20033 18.2129 4.90636 18.535H4.09091V8.12346C4.09091 7.84733 4.20105 7.58251 4.39712 7.38725C4.59318 7.192 4.85909 7.0823 5.13636 7.0823H14.5455C14.8227 7.0823 15.0886 7.192 15.2847 7.38725C15.4808 7.58251 15.5909 7.84733 15.5909 8.12346V18.535ZM17.6818 11.2469H19.7727C19.935 11.2469 20.0951 11.2845 20.2403 11.3568C20.3854 11.4291 20.5117 11.5341 20.6091 11.6634L21.8636 13.3292H17.6818V11.2469ZM19.7727 21.6584C19.566 21.6584 19.3638 21.5974 19.1919 21.483C19.02 21.3686 18.886 21.206 18.8069 21.0157C18.7277 20.8255 18.707 20.6161 18.7474 20.4142C18.7877 20.2122 18.8873 20.0267 19.0335 19.8811C19.1797 19.7355 19.366 19.6363 19.5688 19.5961C19.7716 19.556 19.9818 19.5766 20.1728 19.6554C20.3638 19.7342 20.5271 19.8676 20.642 20.0389C20.7569 20.2101 20.8182 20.4114 20.8182 20.6173C20.8182 20.8934 20.708 21.1582 20.512 21.3535C20.3159 21.5487 20.05 21.6584 19.7727 21.6584ZM22.9091 18.535H22.0936C21.5373 17.9249 20.7615 17.5585 19.9351 17.5156C19.1087 17.4727 18.2988 17.7568 17.6818 18.3059V15.4115H22.9091V18.535Z" fill="#333333" stroke="white" stroke-width="0.6" mask="url(#path-1-inside-1)"/>
</svg>
