<svg width="35" height="35" viewBox="0 0 27 27" fill="none" xmlns="http://www.w3.org/2000/svg">
<path d="M18.6367 24.7489H18.6682C19.2622 24.7489 19.8236 24.5149 20.2489 24.0896L23.2999 21.0386C23.4044 20.9342 23.4874 20.8103 23.544 20.6738C23.6006 20.5373 23.6297 20.391 23.6297 20.2432C23.6297 20.0955 23.6006 19.9492 23.544 19.8127C23.4874 19.6762 23.4044 19.5523 23.2999 19.4479L18.7999 14.9479C18.6955 14.8433 18.5715 14.7604 18.435 14.7038C18.2985 14.6472 18.1522 14.618 18.0045 14.618C17.8567 14.618 17.7104 14.6472 17.574 14.7038C17.4375 14.7604 17.3135 14.8433 17.2091 14.9479L15.4159 16.7411C14.5845 16.4936 13.0331 15.9311 12.0499 14.9479C11.0666 13.9646 10.5041 12.4132 10.2566 11.5819L12.0499 9.78863C12.1544 9.68424 12.2374 9.56026 12.294 9.42378C12.3506 9.2873 12.3797 9.141 12.3797 8.99325C12.3797 8.8455 12.3506 8.6992 12.294 8.56272C12.2374 8.42624 12.1544 8.30226 12.0499 8.19788L7.54987 3.69787C7.3348 3.49487 7.05025 3.38179 6.7545 3.38179C6.45875 3.38179 6.1742 3.49487 5.95912 3.69787L2.90925 6.74888C2.48175 7.17637 2.241 7.76363 2.25 8.36325C2.27587 9.96525 2.7 15.5295 7.08525 19.9147C11.4705 24.3 17.0347 24.723 18.6367 24.7489ZM6.75562 6.084L9.66487 8.99325L8.21025 10.4479C8.07787 10.5799 7.98063 10.7429 7.92738 10.9221C7.87413 11.1013 7.86657 11.291 7.90537 11.4739C7.93237 11.6033 8.59275 14.6711 10.4602 16.5386C12.3277 18.4061 15.3956 19.0665 15.525 19.0935C15.7079 19.1325 15.8976 19.125 16.0768 19.0718C16.2561 19.0185 16.4191 18.9212 16.551 18.7886L18.0056 17.334L20.9149 20.2432L18.6581 22.4989C17.2541 22.4753 12.4504 22.0984 8.676 18.3229C4.88925 14.5361 4.5225 9.7155 4.5 8.33963L6.75562 6.084ZM22.4989 12.3739H24.7489C24.7489 6.60262 20.3917 2.25 14.6126 2.25V4.5C19.1824 4.5 22.4989 7.81087 22.4989 12.3739Z" fill="black"/>
<path d="M14.6239 9C16.9898 9 17.9989 10.0091 17.9989 12.375H20.2489C20.2489 8.74688 18.252 6.75 14.6239 6.75V9Z" fill="black"/>
</svg>
