<svg width="35" height="35" viewBox="0 0 36 36" fill="none" xmlns="http://www.w3.org/2000/svg">
<path d="M15 12H24V14H15V12Z" fill="black"/>
<path d="M15 16H24V18H15V16Z" fill="black"/>
<path d="M15 20H24V22H15V20Z" fill="black"/>
<path d="M15 24H24V26H15V24Z" fill="black"/>
<path d="M11 8H13V10H11V8Z" fill="black"/>
<path d="M11 12H13V14H11V12Z" fill="black"/>
<path d="M11 16H13V18H11V16Z" fill="black"/>
<path d="M11 20H13V22H11V20Z" fill="black"/>
<path d="M11 24H13V26H11V24Z" fill="black"/>
<path d="M15 8V10H23.66C23.2665 9.38079 22.9666 8.70685 22.77 8H15Z" fill="black"/>
<path d="M28 13.22V32H8V4H22.78C22.9734 3.29371 23.27 2.61979 23.66 2H8C7.46957 2 6.96086 2.21071 6.58579 2.58579C6.21071 2.96086 6 3.46957 6 4V32C6 32.5304 6.21071 33.0391 6.58579 33.4142C6.96086 33.7893 7.46957 34 8 34H28C28.5304 34 29.0391 33.7893 29.4142 33.4142C29.7893 33.0391 30 32.5304 30 32V13.5C29.3237 13.4974 28.651 13.4032 28 13.22Z" fill="black"/>
<path d="M30 11C32.7614 11 35 8.76142 35 6C35 3.23858 32.7614 1 30 1C27.2386 1 25 3.23858 25 6C25 8.76142 27.2386 11 30 11Z" fill="black"/>
</svg>
