<svg width="484" height="506" viewBox="0 0 484 506" fill="none" xmlns="http://www.w3.org/2000/svg">
<ellipse rx="496.485" ry="497.192" transform="matrix(0.258819 0.965926 -0.965713 0.259613 -125.356 -103.355)" fill="url(#paint0_radial)"/>
<ellipse rx="322.334" ry="322.793" transform="matrix(0.86582 0.500356 -0.499644 0.866231 -96.6113 -181.391)" fill="url(#paint1_radial)"/>
<path d="M126.839 68V35.234H147.482V38.8383H130.537V49.7915H145.282V53.3957H130.537V68H126.839ZM155.474 38.2766C154.6 38.2766 153.93 38.0581 153.461 37.6212C152.993 37.1532 152.759 36.5134 152.759 35.7021C152.759 34.9219 152.993 34.2978 153.461 33.8297C153.93 33.3617 154.6 33.1276 155.474 33.1276C156.317 33.1276 156.972 33.3617 157.44 33.8297C157.908 34.2666 158.142 34.8907 158.142 35.7021C158.142 36.4822 157.908 37.1063 157.44 37.5744C156.972 38.0425 156.317 38.2766 155.474 38.2766ZM153.696 68V43.5191H157.3V68H153.696ZM164.427 68V43.5191H167.984L168.031 48.2468C168.686 46.7801 169.685 45.5475 171.027 44.5489C172.369 43.5191 173.898 43.0042 175.614 43.0042C176.144 43.0042 176.644 43.051 177.112 43.1447C177.58 43.2383 177.97 43.3319 178.282 43.4255L177.299 47.4042C176.488 47.061 175.676 46.8893 174.865 46.8893C173.461 46.8893 172.244 47.2326 171.214 47.9191C170.184 48.5744 169.388 49.4482 168.827 50.5404C168.296 51.6326 168.031 52.834 168.031 54.1447V68H164.427ZM189.985 68.4681C187.863 68.4681 185.975 68.0936 184.321 67.3447C182.699 66.5645 181.388 65.5191 180.39 64.2085L182.917 62.0085C184.696 64.2241 187.146 65.3319 190.266 65.3319C191.764 65.3319 192.981 65.0043 193.917 64.3489C194.885 63.6624 195.368 62.7262 195.368 61.5404C195.368 60.5418 194.931 59.7149 194.058 59.0596C193.652 58.7475 193.075 58.4511 192.326 58.1702C191.577 57.8893 190.672 57.5929 189.611 57.2808C187.863 56.8128 186.412 56.3135 185.258 55.783C184.103 55.2525 183.198 54.644 182.543 53.9574C181.607 52.8964 181.138 51.5702 181.138 49.9787C181.138 48.6369 181.497 47.451 182.215 46.4213C182.964 45.3603 183.978 44.5333 185.258 43.9404C186.568 43.3163 188.035 43.0042 189.658 43.0042C191.405 43.0042 193.09 43.3787 194.713 44.1276C196.367 44.8454 197.709 45.7815 198.739 46.9361L196.539 49.3234C195.602 48.356 194.557 47.5759 193.402 46.983C192.279 46.39 191.093 46.0936 189.845 46.0936C188.316 46.0936 187.083 46.4369 186.147 47.1234C185.242 47.8099 184.79 48.7149 184.79 49.8383C184.79 50.7432 185.148 51.4922 185.866 52.0851C186.303 52.4284 186.912 52.756 187.692 53.0681C188.503 53.3489 189.502 53.6454 190.687 53.9574C192.029 54.3319 193.184 54.722 194.151 55.1276C195.119 55.5021 195.914 55.9546 196.539 56.4851C198.099 57.6709 198.879 59.2936 198.879 61.3532C198.879 62.7262 198.489 63.9589 197.709 65.0511C196.929 66.1121 195.868 66.9546 194.526 67.5787C193.184 68.1716 191.67 68.4681 189.985 68.4681ZM207.703 68V46.9361H202.226V43.5191H207.703V37.1532H211.261V43.5191H217.392V46.9361H211.261V68H207.703ZM236.728 68.4681C233.607 68.4681 230.83 67.7504 228.396 66.3149C225.962 64.8794 224.058 62.8979 222.685 60.3702C221.312 57.8113 220.626 54.8936 220.626 51.617C220.626 49.2454 221.031 47.0454 221.843 45.017C222.654 42.9886 223.777 41.2255 225.213 39.7276C226.679 38.2298 228.38 37.0595 230.315 36.217C232.281 35.3744 234.403 34.9532 236.681 34.9532C238.21 34.9532 239.723 35.2028 241.221 35.7021C242.719 36.2014 244.092 36.8723 245.34 37.7149C246.62 38.5574 247.665 39.5248 248.477 40.617L245.949 43.2851C244.763 41.8496 243.343 40.7262 241.689 39.9149C240.035 39.0723 238.366 38.651 236.681 38.651C234.34 38.651 232.25 39.2127 230.409 40.3361C228.567 41.4595 227.116 43.0042 226.055 44.9702C224.994 46.9049 224.464 49.1205 224.464 51.617C224.464 54.2071 224.994 56.5007 226.055 58.4979C227.148 60.4638 228.645 61.9929 230.549 63.0851C232.453 64.1773 234.653 64.7234 237.149 64.7234C238.865 64.7234 240.519 64.3801 242.111 63.6936C243.733 62.9759 245.028 62.0397 245.996 60.8851L247.868 63.9745C247.119 64.8482 246.136 65.6284 244.919 66.3149C243.733 66.9702 242.423 67.5007 240.987 67.9064C239.583 68.2809 238.163 68.4681 236.728 68.4681ZM262.976 68.4681C260.854 68.4681 258.935 67.922 257.219 66.8298C255.502 65.7064 254.145 64.1929 253.146 62.2894C252.148 60.3546 251.648 58.1702 251.648 55.7362C251.648 53.2709 252.163 51.0865 253.193 49.183C254.223 47.2482 255.611 45.7347 257.359 44.6425C259.106 43.5503 261.057 43.0042 263.21 43.0042C265.176 43.0042 266.923 43.4567 268.453 44.3617C270.013 45.2666 271.199 46.4369 272.01 47.8723L272.104 43.5191H275.661V68H272.057V63.6468C271.183 65.0199 269.935 66.1745 268.312 67.1106C266.689 68.0156 264.911 68.4681 262.976 68.4681ZM263.772 65.0511C265.394 65.0511 266.845 64.661 268.125 63.8808C269.404 63.0695 270.403 61.9617 271.121 60.5574C271.87 59.1532 272.244 57.5305 272.244 55.6893C272.244 53.9106 271.87 52.3191 271.121 50.9149C270.403 49.5106 269.404 48.4184 268.125 47.6383C266.845 46.8269 265.394 46.4213 263.772 46.4213C262.118 46.4213 260.651 46.8269 259.372 47.6383C258.123 48.4184 257.14 49.5106 256.423 50.9149C255.705 52.3191 255.346 53.9106 255.346 55.6893C255.346 57.4993 255.705 59.122 256.423 60.5574C257.14 61.9617 258.123 63.0695 259.372 63.8808C260.651 64.661 262.118 65.0511 263.772 65.0511ZM282.547 68V33.3617H286.105V68H282.547ZM293.107 68V33.3617H296.664V68H293.107Z" fill="black"/>
<path d="M86.125 54.0893H80.1428V46.9107H86.125V40.9285H93.3036V46.9107H99.2857V54.0893H93.3036V60.0714H86.125V54.0893ZM89.7143 27.7678L70.5714 34.9464V49.5189C70.5714 61.6028 78.7311 72.8732 89.7143 75.625C100.697 72.8732 108.857 61.6028 108.857 49.5189V34.9464L89.7143 27.7678Z" fill="#F07373"/>
<defs>
<radialGradient id="paint0_radial" cx="0" cy="0" r="1" gradientUnits="userSpaceOnUse" gradientTransform="translate(496.485 497.192) rotate(90) scale(497.192 496.485)">
<stop offset="0.322917" stop-color="#F7FFC9"/>
<stop offset="1" stop-color="white" stop-opacity="0"/>
<stop offset="1" stop-color="white" stop-opacity="0"/>
</radialGradient>
<radialGradient id="paint1_radial" cx="0" cy="0" r="1" gradientUnits="userSpaceOnUse" gradientTransform="translate(322.334 322.793) rotate(90) scale(322.793 322.334)">
<stop offset="0.322917" stop-color="#FFAC6E"/>
<stop offset="1" stop-color="white" stop-opacity="0"/>
<stop offset="1" stop-color="white" stop-opacity="0"/>
</radialGradient>
</defs>
</svg>
