<svg width="26" height="24" viewBox="0 0 26 24" fill="none" xmlns="http://www.w3.org/2000/svg">
<path d="M24.8809 11.8087L14.3152 1.24851L13.607 0.540303C13.4457 0.380005 13.2275 0.290039 13 0.290039C12.7726 0.290039 12.5543 0.380005 12.393 0.540303L1.11916 11.8087C0.953812 11.9734 0.823137 12.1695 0.734846 12.3856C0.646554 12.6016 0.602436 12.8331 0.605094 13.0665C0.616031 14.029 1.4172 14.7973 2.3797 14.7973H3.54181V23.7032H22.4582V14.7973H23.6449C24.1125 14.7973 24.5527 14.6141 24.8836 14.2833C25.0465 14.1209 25.1756 13.9278 25.2634 13.7152C25.3511 13.5025 25.3959 13.2746 25.3949 13.0446C25.3949 12.5798 25.2117 12.1395 24.8809 11.8087V11.8087ZM14.5313 21.7344H11.4688V16.1563H14.5313V21.7344ZM20.4895 12.8286V21.7344H16.2813V15.5001C16.2813 14.8958 15.7918 14.4063 15.1875 14.4063H10.8125C10.2082 14.4063 9.71877 14.8958 9.71877 15.5001V21.7344H5.51056V12.8286H2.88556L13.0027 2.7196L13.6344 3.35124L23.1172 12.8286H20.4895Z" fill="black"/>
</svg>
