<svg width="43" height="43" viewBox="0 0 43 43" fill="none" xmlns="http://www.w3.org/2000/svg">
<path d="M17.4688 2.6875V8.0625L14.7812 9.40625L10.75 5.375L5.375 10.75L9.40625 14.7812L8.0625 17.4688H2.6875V25.5312H8.0625L9.40625 28.2188L5.375 32.25L10.75 37.625L14.7812 33.5938L17.4688 34.9375V40.3125H25.5312V34.9375L28.2188 33.5938L32.25 37.625L37.625 32.25L33.5938 28.2188L34.9375 25.5312H40.3125V17.4688H34.9375L33.5938 14.7812L37.625 10.75L32.25 5.375L28.2188 9.40625L25.5312 8.0625V2.6875H17.4688Z" stroke="#333333" stroke-width="2" stroke-linecap="round" stroke-linejoin="round"/>
<path d="M21.5 26.875C24.4685 26.875 26.875 24.4685 26.875 21.5C26.875 18.5315 24.4685 16.125 21.5 16.125C18.5315 16.125 16.125 18.5315 16.125 21.5C16.125 24.4685 18.5315 26.875 21.5 26.875Z" stroke="#333333" stroke-width="2" stroke-linecap="round" stroke-linejoin="round"/>
</svg>
