<svg width="200" height="56" viewBox="0 0 200 56" fill="none" xmlns="http://www.w3.org/2000/svg">
<path d="M55.0297 43V15.6135H72.2832V18.626H58.1205V27.7809H70.4444V30.7934H58.1205V43H55.0297ZM78.9636 18.1565C78.2333 18.1565 77.6725 17.9739 77.2813 17.6088C76.89 17.2176 76.6944 16.6829 76.6944 16.0047C76.6944 15.3527 76.89 14.831 77.2813 14.4398C77.6725 14.0486 78.2333 13.8529 78.9636 13.8529C79.6678 13.8529 80.2155 14.0486 80.6068 14.4398C80.998 14.8049 81.1936 15.3266 81.1936 16.0047C81.1936 16.6568 80.998 17.1784 80.6068 17.5697C80.2155 17.9609 79.6678 18.1565 78.9636 18.1565ZM77.4769 43V22.5384H80.4894V43H77.4769ZM86.4463 43V22.5384H89.4197L89.4588 26.4898C90.0065 25.264 90.8411 24.2337 91.9627 23.3991C93.0842 22.5384 94.3623 22.108 95.7968 22.108C96.2402 22.108 96.6575 22.1471 97.0488 22.2254C97.44 22.3036 97.766 22.3819 98.0268 22.4601L97.2052 25.7856C96.5271 25.4987 95.849 25.3553 95.1708 25.3553C93.9971 25.3553 92.9799 25.6422 92.1192 26.216C91.2585 26.7637 90.5934 27.494 90.1239 28.4069C89.6805 29.3198 89.4588 30.324 89.4588 31.4194V43H86.4463ZM107.809 43.3912C106.035 43.3912 104.457 43.0782 103.075 42.4523C101.718 41.8002 100.623 40.9265 99.7883 39.831L101.901 37.9922C103.388 39.844 105.435 40.77 108.043 40.77C109.295 40.77 110.313 40.4961 111.095 39.9484C111.904 39.3745 112.308 38.5921 112.308 37.6009C112.308 36.7663 111.943 36.0751 111.212 35.5274C110.873 35.2666 110.391 35.0188 109.765 34.784C109.139 34.5493 108.382 34.3015 107.496 34.0407C106.035 33.6495 104.822 33.2321 103.857 32.7887C102.892 32.3453 102.136 31.8367 101.588 31.2629C100.806 30.3761 100.414 29.2676 100.414 27.9374C100.414 26.8159 100.714 25.8247 101.314 24.964C101.94 24.0772 102.788 23.386 103.857 22.8905C104.953 22.3688 106.179 22.108 107.535 22.108C108.995 22.108 110.404 22.421 111.76 23.047C113.143 23.6469 114.264 24.4293 115.125 25.3944L113.286 27.3897C112.503 26.5811 111.63 25.9291 110.665 25.4335C109.726 24.9379 108.735 24.6902 107.691 24.6902C106.413 24.6902 105.383 24.9771 104.601 25.5509C103.844 26.1247 103.466 26.8811 103.466 27.8201C103.466 28.5764 103.766 29.2024 104.366 29.698C104.731 29.9849 105.24 30.2588 105.892 30.5196C106.57 30.7543 107.404 31.0021 108.396 31.2629C109.517 31.5759 110.482 31.9019 111.291 32.241C112.099 32.554 112.764 32.9322 113.286 33.3756C114.59 34.3667 115.242 35.723 115.242 37.4445C115.242 38.5921 114.916 39.6223 114.264 40.5352C113.612 41.422 112.725 42.1262 111.604 42.6479C110.482 43.1435 109.217 43.3912 107.809 43.3912ZM122.618 43V25.3944H118.04V22.5384H122.618V17.2176H125.591V22.5384H130.716V25.3944H125.591V43H122.618ZM146.877 43.3912C144.269 43.3912 141.947 42.7913 139.913 41.5916C137.878 40.3918 136.287 38.7355 135.14 36.6229C133.992 34.4841 133.418 32.0454 133.418 29.3067C133.418 27.3245 133.757 25.4857 134.436 23.7903C135.114 22.095 136.053 20.6213 137.253 19.3694C138.478 18.1174 139.9 17.1393 141.517 16.4351C143.16 15.7309 144.934 15.3788 146.838 15.3788C148.116 15.3788 149.381 15.5874 150.633 16.0047C151.885 16.422 153.032 16.9828 154.076 17.687C155.145 18.3913 156.019 19.1998 156.697 20.1127L154.584 22.3428C153.593 21.143 152.406 20.204 151.024 19.5259C149.642 18.8216 148.246 18.4695 146.838 18.4695C144.882 18.4695 143.134 18.939 141.595 19.878C140.056 20.8169 138.844 22.108 137.957 23.7512C137.07 25.3683 136.627 27.2202 136.627 29.3067C136.627 31.4716 137.07 33.3886 137.957 35.0579C138.87 36.7011 140.122 37.9791 141.713 38.892C143.304 39.8049 145.142 40.2613 147.229 40.2613C148.664 40.2613 150.046 39.9744 151.376 39.4006C152.732 38.8007 153.815 38.0183 154.623 37.0532L156.188 39.6354C155.562 40.3657 154.741 41.0177 153.724 41.5916C152.732 42.1393 151.637 42.5827 150.437 42.9218C149.263 43.2347 148.077 43.3912 146.877 43.3912ZM168.816 43.3912C167.042 43.3912 165.438 42.9348 164.004 42.0219C162.569 41.0829 161.434 39.8179 160.6 38.2269C159.765 36.6098 159.348 34.784 159.348 32.7496C159.348 30.6891 159.778 28.8633 160.639 27.2723C161.5 25.6552 162.66 24.3902 164.121 23.4773C165.582 22.5645 167.212 22.108 169.011 22.108C170.655 22.108 172.115 22.4862 173.393 23.2426C174.697 23.999 175.688 24.9771 176.367 26.1769L176.445 22.5384H179.418V43H176.406V39.3615C175.675 40.5091 174.632 41.4742 173.276 42.2567C171.92 43.013 170.433 43.3912 168.816 43.3912ZM169.481 40.5352C170.837 40.5352 172.05 40.2092 173.119 39.5571C174.189 38.879 175.023 37.9531 175.623 36.7794C176.249 35.6056 176.562 34.2494 176.562 32.7105C176.562 31.2238 176.249 29.8936 175.623 28.7199C175.023 27.5462 174.189 26.6333 173.119 25.9812C172.05 25.3031 170.837 24.964 169.481 24.964C168.098 24.964 166.873 25.3031 165.803 25.9812C164.76 26.6333 163.938 27.5462 163.338 28.7199C162.739 29.8936 162.439 31.2238 162.439 32.7105C162.439 34.2233 162.739 35.5796 163.338 36.7794C163.938 37.9531 164.76 38.879 165.803 39.5571C166.873 40.2092 168.098 40.5352 169.481 40.5352ZM185.174 43V14.0486H188.147V43H185.174ZM194 43V14.0486H196.973V43H194Z" fill="black"/>
<path d="M21 31H16V25H21V20H27V25H32V31H27V36H21V31ZM24 9L8 15V27.18C8 37.28 14.82 46.7 24 49C33.18 46.7 40 37.28 40 27.18V15L24 9Z" fill="#F07373"/>
</svg>
