<svg width="20" height="20" viewBox="0 0 20 20" fill="none" xmlns="http://www.w3.org/2000/svg">
<g clip-path="url(#clip0)">
<path d="M16.2498 10C16.2498 10.705 16.1323 11.3838 15.9173 12.0163L14.8998 10.9988C14.9663 10.6701 14.9998 10.3355 14.9998 10V8.75005C14.9998 8.58428 15.0656 8.42531 15.1828 8.3081C15.3 8.19089 15.459 8.12505 15.6248 8.12505C15.7905 8.12505 15.9495 8.19089 16.0667 8.3081C16.1839 8.42531 16.2498 8.58428 16.2498 8.75005V10ZM9.99976 15C11.0223 15 11.9723 14.6938 12.7648 14.1663L13.6623 15.065C12.77 15.7121 11.7216 16.1103 10.6248 16.2188V18.75H14.3748C14.5405 18.75 14.6995 18.8159 14.8167 18.9331C14.9339 19.0503 14.9998 19.2093 14.9998 19.375C14.9998 19.5408 14.9339 19.6998 14.8167 19.817C14.6995 19.9342 14.5405 20 14.3748 20H5.62476C5.459 20 5.30002 19.9342 5.18281 19.817C5.0656 19.6998 4.99976 19.5408 4.99976 19.375C4.99976 19.2093 5.0656 19.0503 5.18281 18.9331C5.30002 18.8159 5.459 18.75 5.62476 18.75H9.37476V16.2188C7.83311 16.0639 6.40397 15.3418 5.36461 14.1927C4.32524 13.0436 3.74974 11.5495 3.74976 10V8.75005C3.74976 8.58428 3.8156 8.42531 3.93281 8.3081C4.05002 8.19089 4.209 8.12505 4.37476 8.12505C4.54052 8.12505 4.69949 8.19089 4.8167 8.3081C4.93391 8.42531 4.99976 8.58428 4.99976 8.75005V10C4.99976 11.3261 5.52654 12.5979 6.46422 13.5356C7.4019 14.4733 8.67367 15 9.99976 15ZM13.7498 3.75005V9.8488L12.4998 8.5988V3.75005C12.5026 3.09787 12.2506 2.47038 11.7973 2.00146C11.344 1.53254 10.7255 1.25931 10.0736 1.24007C9.42166 1.22082 8.78804 1.45708 8.3079 1.89845C7.82776 2.33981 7.5391 2.95134 7.50351 3.60255L6.44726 2.5463C6.73343 1.70535 7.30875 0.993242 8.0708 0.536754C8.83284 0.0802656 9.73215 -0.0909819 10.6086 0.0534979C11.4851 0.197978 12.2819 0.648808 12.8571 1.32573C13.4323 2.00265 13.7486 2.86174 13.7498 3.75005Z" fill="black"/>
<path d="M11.8574 13.2587L10.9224 12.3237C10.5431 12.4743 10.1328 12.5298 9.72725 12.4853C9.32166 12.4408 8.93313 12.2977 8.59557 12.0685C8.258 11.8393 7.98166 11.531 7.79067 11.1704C7.59968 10.8098 7.49984 10.408 7.49987 10V8.9025L6.24987 7.6525V10C6.24968 10.6566 6.42191 11.3018 6.74934 11.871C7.07677 12.4402 7.54792 12.9134 8.11566 13.2434C8.6834 13.5733 9.32782 13.7484 9.98446 13.7511C10.6411 13.7538 11.2869 13.584 11.8574 13.2587ZM2.05737 1.6925L17.0574 16.6925L17.9424 15.8075L2.94237 0.807495L2.05737 1.6925Z" fill="black"/>
</g>
<defs>
<clipPath id="clip0">
<rect width="20" height="20" fill="white"/>
</clipPath>
</defs>
</svg>
