<svg width="23" height="23" viewBox="0 0 23 23" fill="none" xmlns="http://www.w3.org/2000/svg">
<path d="M8.26094 20.4444H3.87816C3.52742 20.4444 3.19103 20.3051 2.94302 20.0571C2.695 19.8091 2.55566 19.4727 2.55566 19.1219V3.87804C2.55566 3.52729 2.695 3.19091 2.94302 2.94289C3.19103 2.69488 3.52742 2.55554 3.87816 2.55554H8.26733C8.61697 2.55723 8.95172 2.69731 9.19835 2.94514C9.44499 3.19298 9.58345 3.5284 9.58344 3.87804V19.1219C9.58344 19.4727 9.44411 19.8091 9.19609 20.0571C8.94807 20.3051 8.61169 20.4444 8.26094 20.4444ZM8.30566 3.83332H3.83344V19.1667H8.30566V3.83332Z" fill="black"/>
<path d="M19.122 20.4444H14.7392C14.3885 20.4444 14.0521 20.3051 13.8041 20.0571C13.5561 19.8091 13.4167 19.4727 13.4167 19.1219V3.87804C13.4167 3.52729 13.5561 3.19091 13.8041 2.94289C14.0521 2.69488 14.3885 2.55554 14.7392 2.55554H19.1284C19.4781 2.55723 19.8128 2.69731 20.0594 2.94514C20.3061 3.19298 20.4445 3.5284 20.4445 3.87804V19.1219C20.4445 19.4727 20.3052 19.8091 20.0572 20.0571C19.8092 20.3051 19.4728 20.4444 19.122 20.4444ZM19.1667 3.83332H14.6945V19.1667H19.1667V3.83332Z" fill="black"/>
</svg>
