<svg width="28" height="28" viewBox="0 0 28 28" fill="none" xmlns="http://www.w3.org/2000/svg">
<path d="M22.9599 11.482C24.1519 12.052 24.7069 13.433 24.3749 14.872L23.9419 16.749C23.8704 17.059 23.6834 17.33 23.419 17.5069C23.1546 17.6838 22.8327 17.7532 22.5189 17.701L19.3719 17.177C19.2243 17.1527 19.0873 17.0847 18.9786 16.9819C18.8699 16.879 18.7945 16.7461 18.7619 16.6L17.9819 13.087C17.9537 12.9607 17.8933 12.8439 17.8066 12.7479C17.7198 12.6518 17.6097 12.5799 17.4869 12.539L17.2499 13.25L17.4869 12.539H17.4859L17.4839 12.538L17.4789 12.536L17.4619 12.53C17.1239 12.4271 16.7816 12.339 16.4359 12.266C15.6351 12.0946 14.8189 12.0055 13.9999 12C13.0579 12 12.1899 12.134 11.5639 12.266C11.2183 12.339 10.8759 12.4271 10.5379 12.53L10.5209 12.536L10.5159 12.538H10.5129L10.7499 13.25L10.5129 12.539C10.3902 12.5799 10.2801 12.6518 10.1933 12.7479C10.1066 12.8439 10.0462 12.9607 10.0179 13.087L9.23794 16.6C9.20542 16.7461 9.12995 16.879 9.02125 16.9819C8.91255 17.0847 8.77557 17.1527 8.62794 17.177L5.48194 17.701C5.16799 17.7535 4.84585 17.6842 4.58124 17.5073C4.31663 17.3304 4.12947 17.0592 4.05794 16.749L3.62894 14.892C3.29494 13.445 3.85894 12.055 5.06194 11.487C7.01594 10.563 10.0949 9.51301 14.0019 9.50001C17.9229 9.48701 21.0089 10.549 22.9609 11.482H22.9599ZM16.6149 13.848L17.2979 16.925C17.3953 17.3628 17.6212 17.7614 17.9468 18.0698C18.2723 18.3783 18.6826 18.5824 19.1249 18.656L22.2719 19.181C22.9624 19.2962 23.6709 19.1437 24.2529 18.7546C24.8348 18.3655 25.2465 17.7691 25.4039 17.087L25.8369 15.209C26.2909 13.242 25.5679 11.066 23.6069 10.129C21.5029 9.12201 18.1949 7.98601 13.9969 8.00001C9.82094 8.01401 6.52494 9.13601 4.42094 10.13C2.44594 11.064 1.71094 13.25 2.16794 15.229L2.59594 17.087C2.75339 17.7691 3.16506 18.3655 3.74702 18.7546C4.32898 19.1437 5.03743 19.2962 5.72794 19.181L8.87494 18.656C9.3173 18.5824 9.72757 18.3783 10.0531 18.0698C10.3786 17.7614 10.6046 17.3628 10.7019 16.925L11.3859 13.848C11.5199 13.813 11.6849 13.774 11.8729 13.734C12.4339 13.616 13.1929 13.5 13.9999 13.5C14.8079 13.5 15.5659 13.616 16.1269 13.734C16.3159 13.774 16.4799 13.814 16.6149 13.848Z" fill="#333333"/>
</svg>
