<svg width="29" height="29" viewBox="0 0 29 29" fill="none" xmlns="http://www.w3.org/2000/svg">
<path d="M12.0834 21.75C14.2282 21.7495 16.3111 21.0315 18.0006 19.7103L23.3125 25.0221L25.021 23.3135L19.7092 18.0017C21.0311 16.3121 21.7496 14.2286 21.7501 12.0833C21.7501 6.75333 17.4134 2.41663 12.0834 2.41663C6.75346 2.41663 2.41675 6.75333 2.41675 12.0833C2.41675 17.4132 6.75346 21.75 12.0834 21.75ZM12.0834 4.83329C16.0818 4.83329 19.3334 8.08492 19.3334 12.0833C19.3334 16.0817 16.0818 19.3333 12.0834 19.3333C8.08504 19.3333 4.83342 16.0817 4.83342 12.0833C4.83342 8.08492 8.08504 4.83329 12.0834 4.83329Z" fill="black"/>
</svg>
